# xmcd
#
# Track frame offsets: 
#        150
#        16835
#        31963
#        55258
#        68368
#        85750
#        104663
#        126350
#        149013
#        167353
#        183973
#        197445
#
# Disc length: 2828 seconds
#
# Revision: 0
# Processed by: cddbd v1.5PL3 Copyright (c) Steve Scherf et al.
# Submitted via: ExactAudioCopy v0.95a4
#
DISCID=990b0a0c
DTITLE=Izumi Masuda - Heal My Heart
DYEAR=2003
DGENRE=Opera
TTITLE0=Heal My Heart(Long Version)
TTITLE1=The Allure
TTITLE2=Inner Landscape
TTITLE3=Ombra Mai Fu from
TTITLE4=Solveig's Song from Peer Gynt
TTITLE5=Poveri Fiori from
TTITLE6=La Sua Donna
TTITLE7=Dites-Moi
TTITLE8=Hana
TTITLE9=May You Have Happiness
TTITLE10=Come Ready And See Me
TTITLE11=Heal My Heart(Short Version)
EXTD=
EXTT0=Heal My Hart
EXTT1=
EXTT2=
EXTT3=
EXTT4=
EXTT5=
EXTT6=
EXTT7=
EXTT8=
EXTT9=
EXTT10=
EXTT11=
PLAYORDER=
